<svg xmlns="http://www.w3.org/2000/svg" xmlns:xlink="http://www.w3.org/1999/xlink" width="49.779" height="54.385" viewBox="0 0 49.779 54.385">
  <defs>
    <linearGradient id="linear-gradient" x1="0.33" y1="-0.318" x2="0.5" y2="1" gradientUnits="objectBoundingBox">
      <stop offset="0" stop-color="#fbe587"/>
      <stop offset="1" stop-color="#fe8656"/>
    </linearGradient>
    <filter id="Polygon_Copy" x="0" y="0" width="49.779" height="54.385" filterUnits="userSpaceOnUse">
      <feOffset dy="2" input="SourceAlpha"/>
      <feGaussianBlur stdDeviation="2" result="blur"/>
      <feFlood flood-color="#9eadbc" flood-opacity="0.4"/>
      <feComposite operator="in" in2="blur"/>
      <feComposite in="SourceGraphic"/>
    </filter>
  </defs>
  <g id="_2" data-name="2" transform="translate(0.016 3.277)">
    <g transform="matrix(1, 0, 0, 1, -0.02, -3.28)" filter="url(#Polygon_Copy)">
      <path id="Polygon_Copy-2" data-name="Polygon Copy" d="M19.811,1.155a4,4,0,0,1,4,0L38.7,9.751a4,4,0,0,1,2,3.464V30.408a4,4,0,0,1-2,3.464l-14.889,8.6a4,4,0,0,1-4,0l-14.889-8.6a4,4,0,0,1-2-3.464V13.215a4,4,0,0,1,2-3.464Z" transform="translate(3.08 3.38)" fill="url(#linear-gradient)"/>
    </g>
    <g id="Polygon_Copy_2" data-name="Polygon Copy 2">
      <path id="Polygon_Copy_2-2" data-name="Polygon Copy 2" d="M0,0,12.859,7.424A2.283,2.283,0,0,1,14,9.4v8.148" transform="translate(25.006 6.087)" fill="none"/>
      <path id="Polygon_Copy_2-3" data-name="Polygon Copy 2" d="M0,0,12.859,7.424A2.283,2.283,0,0,1,14,9.4v8.148" transform="translate(25.006 6.087)" fill="none" stroke="#fff" stroke-linecap="round" stroke-miterlimit="10" stroke-width="2"/>
    </g>
    <text id="_2-2" data-name="2" transform="translate(20 28)" fill="#fff" font-size="16" font-family="SegoeUI, Segoe UI"><tspan x="0" y="0">2</tspan></text>
  </g>
</svg>
