<svg id="Apple_Store" data-name="Apple Store" xmlns="http://www.w3.org/2000/svg" width="213" height="64" viewBox="0 0 213 64">
  <rect id="button" width="213" height="64" rx="10" fill="#fff"/>
  <text id="Download_on_the" data-name="Download on the" transform="translate(68 22)" font-size="15" font-family="SFUIDisplay-Regular, SF UI Display"><tspan x="0" y="0" letter-spacing="0.08em">Download on th</tspan><tspan y="0">e</tspan></text>
  <text id="App_Store" data-name="App Store" transform="translate(68 51)" font-size="29" font-family="SFUIDisplay-Medium, SF UI Display" font-weight="500"><tspan x="0" y="0">App Store</tspan></text>
  <path id="logo" d="M10.92,41.908c-2.59,0-4.551-2.51-6.5-5.305A26.337,26.337,0,0,1,.346,26.5c-.53-2.992-.714-7.332,1.416-11.013a10.694,10.694,0,0,1,3.7-3.8,9.942,9.942,0,0,1,5-1.452h.106A11.76,11.76,0,0,1,14.8,11.311a8.019,8.019,0,0,0,2.606.746,8.172,8.172,0,0,0,2.519-.735A13.644,13.644,0,0,1,24.785,10.1a6.7,6.7,0,0,1,.669.033,9.767,9.767,0,0,1,7.69,4.15l-.033.021a9.389,9.389,0,0,0-4.505,7.96,9.241,9.241,0,0,0,5.632,8.47l.011,0-.013.043a23,23,0,0,1-2.9,5.919c-1.64,2.387-3.5,5.093-6.436,5.147h-.128a7.262,7.262,0,0,1-3.13-.785,8.424,8.424,0,0,0-3.686-.88,8.952,8.952,0,0,0-3.868.908,8.006,8.006,0,0,1-3.024.808ZM17.5,9.675c-.143,0-.286-.006-.426-.016A8.719,8.719,0,0,1,19.3,3.174,9.414,9.414,0,0,1,25.5,0a9.239,9.239,0,0,1-2.19,6.693A7.913,7.913,0,0,1,17.5,9.675Z" transform="translate(16.823 11)"/>
</svg>
