<svg xmlns="http://www.w3.org/2000/svg" width="100" height="100" viewBox="0 0 100 100">
  <path id="Combined_Shape" data-name="Combined Shape" d="M90.909,95.455A4.545,4.545,0,1,1,95.455,100,4.545,4.545,0,0,1,90.909,95.455Zm-18.182,0A4.545,4.545,0,1,1,77.273,100,4.545,4.545,0,0,1,72.727,95.455Zm-18.182,0A4.545,4.545,0,1,1,59.091,100,4.545,4.545,0,0,1,54.545,95.455Zm-18.182,0A4.545,4.545,0,1,1,40.91,100,4.545,4.545,0,0,1,36.364,95.455Zm-18.182,0A4.545,4.545,0,1,1,22.728,100,4.545,4.545,0,0,1,18.182,95.455ZM0,95.455A4.545,4.545,0,1,1,4.546,100,4.545,4.545,0,0,1,0,95.455ZM90.909,77.273a4.545,4.545,0,1,1,4.546,4.545A4.545,4.545,0,0,1,90.909,77.273Zm-18.182,0a4.545,4.545,0,1,1,4.546,4.545A4.545,4.545,0,0,1,72.727,77.273Zm-18.182,0a4.545,4.545,0,1,1,4.546,4.545A4.545,4.545,0,0,1,54.545,77.273Zm-18.182,0a4.545,4.545,0,1,1,4.546,4.545A4.545,4.545,0,0,1,36.364,77.273Zm-18.182,0a4.545,4.545,0,1,1,4.546,4.545A4.545,4.545,0,0,1,18.182,77.273ZM0,77.273a4.545,4.545,0,1,1,4.546,4.545A4.545,4.545,0,0,1,0,77.273ZM90.909,59.091a4.545,4.545,0,1,1,4.546,4.545A4.545,4.545,0,0,1,90.909,59.091Zm-18.182,0a4.545,4.545,0,1,1,4.546,4.545A4.545,4.545,0,0,1,72.727,59.091Zm-18.182,0a4.545,4.545,0,1,1,4.546,4.545A4.545,4.545,0,0,1,54.545,59.091Zm-18.182,0a4.545,4.545,0,1,1,4.546,4.545A4.545,4.545,0,0,1,36.364,59.091Zm-18.182,0a4.545,4.545,0,1,1,4.546,4.545A4.545,4.545,0,0,1,18.182,59.091ZM0,59.091a4.545,4.545,0,1,1,4.546,4.545A4.545,4.545,0,0,1,0,59.091ZM90.909,40.91a4.545,4.545,0,1,1,4.546,4.545A4.545,4.545,0,0,1,90.909,40.91Zm-18.182,0a4.545,4.545,0,1,1,4.546,4.545A4.545,4.545,0,0,1,72.727,40.91Zm-18.182,0a4.545,4.545,0,1,1,4.546,4.545A4.545,4.545,0,0,1,54.545,40.91Zm-18.182,0a4.545,4.545,0,1,1,4.546,4.545A4.545,4.545,0,0,1,36.364,40.91Zm-18.182,0a4.545,4.545,0,1,1,4.546,4.545A4.545,4.545,0,0,1,18.182,40.91ZM0,40.91a4.545,4.545,0,1,1,4.546,4.545A4.545,4.545,0,0,1,0,40.91ZM90.909,22.728a4.545,4.545,0,1,1,4.546,4.545A4.545,4.545,0,0,1,90.909,22.728Zm-18.182,0a4.545,4.545,0,1,1,4.546,4.545A4.545,4.545,0,0,1,72.727,22.728Zm-18.182,0a4.545,4.545,0,1,1,4.546,4.545A4.545,4.545,0,0,1,54.545,22.728Zm-18.182,0a4.545,4.545,0,1,1,4.546,4.545A4.545,4.545,0,0,1,36.364,22.728Zm-18.182,0a4.545,4.545,0,1,1,4.546,4.545A4.545,4.545,0,0,1,18.182,22.728ZM0,22.728a4.545,4.545,0,1,1,4.546,4.545A4.545,4.545,0,0,1,0,22.728ZM90.909,4.546a4.545,4.545,0,1,1,4.546,4.545A4.545,4.545,0,0,1,90.909,4.546Zm-18.182,0a4.545,4.545,0,1,1,4.546,4.545A4.545,4.545,0,0,1,72.727,4.546Zm-18.182,0a4.545,4.545,0,1,1,4.546,4.545A4.545,4.545,0,0,1,54.545,4.546Zm-18.182,0A4.545,4.545,0,1,1,40.91,9.091,4.545,4.545,0,0,1,36.364,4.546Zm-18.182,0a4.545,4.545,0,1,1,4.546,4.545A4.545,4.545,0,0,1,18.182,4.546ZM0,4.546A4.545,4.545,0,1,1,4.546,9.091,4.545,4.545,0,0,1,0,4.546Z" fill="#fff"/>
</svg>
