<svg id="login_signup" xmlns="http://www.w3.org/2000/svg" width="24" height="24" viewBox="0 0 24 24">
  <rect id="bound" width="24" height="24" fill="none"/>
  <rect id="Rectangle" width="2" height="12" rx="1" transform="translate(15 11) rotate(90)" fill="#fff"/>
  <path id="Path_103" data-name="Path 103" d="M15,2.006a1,1,0,1,1,0-2h1a4,4,0,0,1,4,4v6a4,4,0,0,1-4,4H4a4,4,0,0,1-4-4V4A4,4,0,0,1,4,0H5A1,1,0,1,1,5,2H4A2,2,0,0,0,2,4v6a2,2,0,0,0,2,2H16a2,2,0,0,0,2-2v-6a2,2,0,0,0-2-2Z" transform="translate(8 22) rotate(-90)" fill="#fff"/>
  <path id="Path_104" data-name="Path 104" d="M6.293.293A1,1,0,0,1,7.707,1.707l-3,3a1,1,0,0,1-1.414,0l-3-3A1,1,0,0,1,1.707.293L4,2.586Z" transform="translate(12 16) rotate(-90)" fill="#fff"/>
</svg>
