<svg xmlns="http://www.w3.org/2000/svg" xmlns:xlink="http://www.w3.org/1999/xlink" width="43.779" height="48.385" viewBox="0 0 43.779 48.385">
  <defs>
    <linearGradient id="linear-gradient" x1="0.33" y1="-0.318" x2="0.5" y2="1" gradientUnits="objectBoundingBox">
      <stop offset="0" stop-color="#fda3b3"/>
      <stop offset="1" stop-color="#f8576a"/>
    </linearGradient>
    <filter id="Polygon_Copy" x="0" y="0" width="43.779" height="48.385" filterUnits="userSpaceOnUse">
      <feOffset dy="1" input="SourceAlpha"/>
      <feGaussianBlur stdDeviation="1" result="blur"/>
      <feFlood flood-color="#9eadbc" flood-opacity="0.4"/>
      <feComposite operator="in" in2="blur"/>
      <feComposite in="SourceGraphic"/>
    </filter>
  </defs>
  <g id="play_game" transform="translate(-34 -24)">
    <g transform="matrix(1, 0, 0, 1, 34, 24)" filter="url(#Polygon_Copy)">
      <path id="Polygon_Copy-2" data-name="Polygon Copy" d="M19.811,1.155a4,4,0,0,1,4,0L38.7,9.751a4,4,0,0,1,2,3.464V30.408a4,4,0,0,1-2,3.464l-14.889,8.6a4,4,0,0,1-4,0l-14.889-8.6a4,4,0,0,1-2-3.464V13.215a4,4,0,0,1,2-3.464Z" transform="translate(0.08 1.38)" fill="url(#linear-gradient)"/>
    </g>
    <g id="Polygon_Copy_2" data-name="Polygon Copy 2" transform="translate(0 -1)">
      <path id="Polygon_Copy_2-2" data-name="Polygon Copy 2" d="M0,0,12.859,7.424A2.283,2.283,0,0,1,14,9.4v8.148" transform="translate(57.006 31.087)" fill="none"/>
      <path id="Polygon_Copy_2-3" data-name="Polygon Copy 2" d="M0,0,12.859,7.424A2.283,2.283,0,0,1,14,9.4v8.148" transform="translate(57.006 31.087)" fill="none" stroke="#fff" stroke-linecap="round" stroke-miterlimit="10" stroke-width="2"/>
    </g>
    <g id="play-arrow" transform="translate(42.783 38.878)">
      <path id="Path_314" data-name="Path 314" d="M20.848,7.122,8.68.1A.751.751,0,0,0,7.556.75V14.8a.751.751,0,0,0,1.124.65L20.848,8.434A.761.761,0,0,0,20.848,7.122Z" transform="translate(0 0)" fill="#fff"/>
    </g>
  </g>
</svg>
