<svg xmlns="http://www.w3.org/2000/svg" width="93.656" height="75.938" viewBox="0 0 93.656 75.938">
  <g id="quote_sign" transform="translate(-11.109 -49.406)">
    <path id="_" data-name="“" d="M52.734-206.185q-6.609,3.786-10.687,6.519a49.2,49.2,0,0,0-8.3,7.218,33,33,0,0,0-6.047,8.831A40.19,40.19,0,0,0,24.75-171.7H31.5q8.719,0,13.711,4.289T50.2-154.828a16.608,16.608,0,0,1-4.43,11.039q-4.43,5.133-12.164,5.133-12.094,0-17.3-7.931t-5.2-20.844a35.263,35.263,0,0,1,3.938-16.632,58.941,58.941,0,0,1,9.563-13.4,69.022,69.022,0,0,1,12.234-10.247q6.469-4.211,10.828-6.879Zm52.031,0q-6.609,3.786-10.687,6.519a49.2,49.2,0,0,0-8.3,7.218,32.547,32.547,0,0,0-6.117,8.9A40.946,40.946,0,0,0,76.781-171.7h6.75q8.719,0,13.711,4.289t4.992,12.586a16.608,16.608,0,0,1-4.43,11.039q-4.43,5.133-12.164,5.133-12.094,0-17.3-7.931t-5.2-20.844a35.263,35.263,0,0,1,3.938-16.632,58.941,58.941,0,0,1,9.563-13.4,69.022,69.022,0,0,1,12.234-10.247q6.469-4.211,10.828-6.879Z" transform="translate(0 264)" fill="#fa2fff"/>
  </g>
</svg>
