<svg id="smart_phone" xmlns="http://www.w3.org/2000/svg" width="60" height="60" viewBox="0 0 60 60">
  <rect id="bound" width="60" height="60" fill="none"/>
  <path id="Combined_Shape" data-name="Combined Shape" d="M3.125,0A3.125,3.125,0,0,0,0,3.125v41.25A3.125,3.125,0,0,0,3.125,47.5h20a3.125,3.125,0,0,0,3.125-3.125V3.125A3.125,3.125,0,0,0,23.125,0Z" transform="translate(16.875 6.25)" fill="#fff" opacity="0.3"/>
  <path id="Combined_Shape-2" data-name="Combined Shape" d="M26.875,55h-20A6.883,6.883,0,0,1,0,48.125V6.875A6.883,6.883,0,0,1,6.875,0h20A6.883,6.883,0,0,1,33.75,6.875v41.25A6.883,6.883,0,0,1,26.875,55Zm-20-51.25A3.128,3.128,0,0,0,3.75,6.875v41.25A3.128,3.128,0,0,0,6.875,51.25h20A3.128,3.128,0,0,0,30,48.125V6.875A3.128,3.128,0,0,0,26.875,3.75h-2.5V2.375a.5.5,0,0,0-.5-.5h-14a.5.5,0,0,0-.5.5V3.75Zm17,3.125h-14a.5.5,0,0,1-.5-.5V3.75h15V6.375A.5.5,0,0,1,23.875,6.875Z" transform="translate(13.125 2.5)" fill="#b9c2ca"/>
</svg>
